<svg width="24" height="24" viewBox="0 0 24 24" fill="none" xmlns="http://www.w3.org/2000/svg">
<path d="M15 12C15.7911 12 16.5645 11.7654 17.2223 11.3259C17.8801 10.8864 18.3928 10.2616 18.6955 9.53074C18.9983 8.79983 19.0775 7.99556 18.9231 7.21964C18.7688 6.44372 18.3878 5.73098 17.8284 5.17157C17.269 4.61216 16.5563 4.2312 15.7804 4.07686C15.0044 3.92252 14.2002 4.00173 13.4693 4.30448C12.7384 4.60723 12.1136 5.11992 11.6741 5.77772C11.2346 6.43552 11 7.20888 11 8C11 9.06087 11.4214 10.0783 12.1716 10.8284C12.9217 11.5786 13.9391 12 15 12ZM6 10V7H4V10H1V12H4V15H6V12H9V10H6ZM15 14C12.33 14 7 15.34 7 18V20H23V18C23 15.34 17.67 14 15 14Z" fill="black"/>
</svg>
